<?xml version="1.0" encoding="UTF-8" standalone="no"?>
<svg
   viewBox="0 0 576 512"
   version="1.1"
   id="svg1"
   sodipodi:docname="splash.svg"
   inkscape:version="1.4 (86a8ad7, 2024-10-11)"
   inkscape:export-xdpi="96"
   inkscape:export-ydpi="96"
   xmlns:inkscape="http://www.inkscape.org/namespaces/inkscape"
   xmlns:sodipodi="http://sodipodi.sourceforge.net/DTD/sodipodi-0.dtd"
   xmlns:xlink="http://www.w3.org/1999/xlink"
   xmlns="http://www.w3.org/2000/svg"
   xmlns:svg="http://www.w3.org/2000/svg">
  <defs
     id="defs1">
    <linearGradient
       id="linearGradient1"
       inkscape:collect="always">
      <stop
         style="stop-color:#ff0000;stop-opacity:1;"
         offset="0"
         id="stop1" />
      <stop
         style="stop-color:#ff8000;stop-opacity:1;"
         offset="0.15862069"
         id="stop2" />
      <stop
         style="stop-color:#ffff00;stop-opacity:1;"
         offset="0.32586208"
         id="stop3" />
      <stop
         style="stop-color:#00ff00;stop-opacity:1;"
         offset="0.49827588"
         id="stop4" />
      <stop
         style="stop-color:#00ffff;stop-opacity:1;"
         offset="0.6603449"
         id="stop5" />
      <stop
         style="stop-color:#0000ff;stop-opacity:1;"
         offset="0.83965516"
         id="stop6" />
      <stop
         style="stop-color:#ff00ff;stop-opacity:1;"
         offset="1"
         id="stop7" />
    </linearGradient>
    <linearGradient
       inkscape:collect="always"
       xlink:href="#linearGradient1"
       id="linearGradient2"
       x1="287.99982"
       y1="-30.093931"
       x2="287.99982"
       y2="541.99396"
       gradientUnits="userSpaceOnUse" />
  </defs>
  <sodipodi:namedview
     id="namedview1"
     pagecolor="#ffffff"
     bordercolor="#000000"
     borderopacity="0.25"
     inkscape:showpageshadow="2"
     inkscape:pageopacity="0.0"
     inkscape:pagecheckerboard="0"
     inkscape:deskcolor="#d1d1d1"
     inkscape:zoom="1.5097656"
     inkscape:cx="287.79301"
     inkscape:cy="256"
     inkscape:window-width="1920"
     inkscape:window-height="991"
     inkscape:window-x="-9"
     inkscape:window-y="-9"
     inkscape:window-maximized="1"
     inkscape:current-layer="svg1" />
  <!--!Font Awesome Free 6.7.2 by @fontawesome - https://fontawesome.com License - https://fontawesome.com/license/free Copyright 2025 Fonticons, Inc.-->
  <path
     d="M288 0c17.7 0 32 14.3 32 32l0 17.7C451.8 63.4 557.7 161 573.9 285.9c2 15.6-17.3 24.4-27.8 12.7C532.1 283 504.8 272 480 272c-38.7 0-71 27.5-78.4 64.1c-1.7 8.7-8.7 15.9-17.6 15.9s-15.8-7.2-17.6-15.9C359 299.5 326.7 272 288 272s-71 27.5-78.4 64.1c-1.7 8.7-8.7 15.9-17.6 15.9s-15.8-7.2-17.6-15.9C167 299.5 134.7 272 96 272c-24.8 0-52.1 11-66.1 26.7C19.4 310.4 .1 301.5 2.1 285.9C18.3 161 124.2 63.4 256 49.7L256 32c0-17.7 14.3-32 32-32zm0 304c12.3 0 23.5 4.6 32 12.2l0 114.3c0 45-36.5 81.4-81.4 81.4c-30.8 0-59-17.4-72.8-45l-2.3-4.7c-7.9-15.8-1.5-35 14.3-42.9s35-1.5 42.9 14.3l2.3 4.7c3 5.9 9 9.6 15.6 9.6c9.6 0 17.4-7.8 17.4-17.4l0-114.3c8.5-7.6 19.7-12.2 32-12.2z"
     id="path1"
     style="fill:url(#linearGradient2);fill-opacity:1;stroke:#000000;stroke-opacity:1;stroke-width:3;stroke-dasharray:none" />
  <text
     xml:space="preserve"
     style="font-style:normal;font-variant:normal;font-weight:normal;font-stretch:normal;font-size:72.6815px;font-family:sans-serif;-inkscape-font-specification:'sans-serif, Normal';font-variant-ligatures:normal;font-variant-caps:normal;font-variant-numeric:normal;font-variant-east-asian:normal;text-align:start;writing-mode:lr-tb;direction:ltr;text-anchor:start;fill:#000000;fill-opacity:0;stroke:#000000;stroke-width:1;stroke-dasharray:none;stroke-opacity:1"
     x="50.356033"
     y="242.6888"
     id="text7"><tspan
       sodipodi:role="line"
       id="tspan7"
       x="50.356033"
       y="242.6888"
       style="stroke-width:1;fill:#000000;fill-opacity:0;stroke-dasharray:none">App Umbrella</tspan></text>
</svg>
